<svg id="Layer_2" data-name="Layer 2" xmlns="http://www.w3.org/2000/svg" viewBox="0 0 343.62 402.53"><defs><style>.cls-1{fill:none;}.cls-1,.cls-2{stroke:#fff;stroke-miterlimit:10;stroke-width:3px;}.cls-2{fill:red;}</style></defs><title>ChooseTheFoodLogo</title><path class="cls-1" d="M327.5,186.05S404.75,173,444.24,234.89s71.26,67.55,124.26,67.55V282.74l79.38,35.53L571.34,360l0.57-19s-102,8.6-144.16-52.94c-41.37-60.46-53.26-67.66-100.26-67.66V186.05Z" transform="translate(-310.76 -53.97)"/><path class="cls-1" d="M403.38,272.46c-24.44,43.19-75.88,43.33-75.88,43.33v35.41s60.81,3.93,95.76-34.65" transform="translate(-310.76 -53.97)"/><path class="cls-1" d="M455.16,226.51s45.34-32,116.34-29.17V176.49l74.2,41-77.2,38V233.95s-56.89-2-90,28.58" transform="translate(-310.76 -53.97)"/><path class="cls-2" d="M652.88,167.26H312.26c0-61.74,76.25-111.79,170.31-111.79S652.88,105.52,652.88,167.26Z" transform="translate(-310.76 -53.97)"/><path class="cls-2" d="M312.26,376.91H652.88c0,18.62-19.39,56.89-49.35,69.24-30.93,12.75-208.6,11.14-239.34-1C332.83,432.67,312.26,396,312.26,376.91Z" transform="translate(-310.76 -53.97)"/></svg>