<svg id="Layer_1" data-name="Layer 1" xmlns="http://www.w3.org/2000/svg" viewBox="0 0 488.3 488.2"><defs><style>.cls-1,.cls-3{fill:red;}.cls-1,.cls-2,.cls-3{stroke:#fff;stroke-miterlimit:10;}.cls-2{fill:none;}.cls-2,.cls-3{stroke-width:3px;}</style></defs><title>ChooseTheFoodLogoTile</title><g id="Layer_1-2" data-name="Layer 1"><path class="cls-1" d="M711.6,523.6H248.4a12,12,0,0,1-12-12V48.4a12,12,0,0,1,12-12H711.7a12,12,0,0,1,12,12V511.7A12.17,12.17,0,0,1,711.6,523.6Z" transform="translate(-235.9 -35.9)"/></g><g id="Layer_2" data-name="Layer 2"><path class="cls-2" d="M327.5,186.1s77.3-13.1,116.7,48.8,71.3,67.5,124.3,67.5V282.7l79.4,35.5L571.3,360l0.6-19s-102,8.6-144.2-52.9c-41.4-60.5-53.3-67.7-100.3-67.7V186.1h0.1Z" transform="translate(-235.9 -35.9)"/><path class="cls-2" d="M403.4,272.5c-24.4,43.2-75.9,43.3-75.9,43.3v35.4s60.8,3.9,95.8-34.7" transform="translate(-235.9 -35.9)"/><path class="cls-2" d="M455.2,226.5s45.3-32,116.3-29.2V176.5l74.2,41-77.2,38V233.9s-56.9-2-90,28.6" transform="translate(-235.9 -35.9)"/><path class="cls-3" d="M652.9,167.3H312.3c0-61.7,76.3-111.8,170.3-111.8S652.9,105.5,652.9,167.3Z" transform="translate(-235.9 -35.9)"/><path class="cls-3" d="M312.3,376.9H652.9c0,18.6-19.4,56.9-49.3,69.2-30.9,12.8-208.6,11.1-239.3-1C332.8,432.7,312.3,396,312.3,376.9Z" transform="translate(-235.9 -35.9)"/></g></svg>